<svg xmlns="http://www.w3.org/2000/svg" x="0px" y="0px" viewBox="6.5003862380981445 8.270299911499023 33.205814361572266 33.222320556640625" enable-background="new 0 0 48 48">
<g>
	
		<path fill="#FFFFFF" stroke="#000000" stroke-width="1" stroke-linecap="round" stroke-linejoin="round" stroke-miterlimit="10" d="   M17.7898,19.7968c-1.2691,1.1036-1.5721,2.9371-0.7508,4.4048c0.5711,1.0207,1.3881,2.2194,2.5297,3.3988   c1.5055,1.5552,3.2541,2.7198,4.6081,3.4883c1.2873,0.7307,2.8968,0.5481,4.0146-0.4221l0.597-0.5182   c1.2124-1.0522,3.0128-1.0571,4.2307-0.0113l3.8523,3.3076c1.4778,1.2688,1.5478,3.5899,0.0662,4.8543   c-1.6364,1.3966-4.2156,2.7746-7.9819,2.6899C21.4371,40.82,9.1028,28.9081,7.2442,19.9531   c-1.1238-5.4146,1.8603-8.3275,4.3955-9.7844c1.5935-0.9157,3.6212-0.363,4.4961,1.2534l2.3767,4.3909   C19.2342,17.1463,18.9339,18.8019,17.7898,19.7968L17.7898,19.7968z"/>
</g>
<g>
	<g>
		
			<line fill="none" stroke="#000000" stroke-width="1" stroke-linecap="round" stroke-linejoin="round" stroke-miterlimit="10" x1="28.2239" y1="19.9512" x2="38.8092" y2="9.3659"/>
		<path fill="none" stroke="#000000" stroke-width="1" stroke-linecap="round" stroke-linejoin="round" stroke-miterlimit="10" d="    M39.2062,15.3221v-5.435c0-0.6168-0.5-1.1168-1.1168-1.1168h-5.2364"/>
	</g>
</g>
</svg>